<svg viewBox="0 0 680 540">
  <path d="M453.7 261h3.3c.9 0 1.3.2 1.3.6l-1.4 2.6a107.5 107.5 0 0 1-4.8 7c-1 .9-2 1.3-3 1.3-.8 0-1.1-.4-1.1-1 0-.5.2-1.3.6-2.5l1.1-3.4c.7-2 1.3-3.3 1.8-3.8.4-.6 1.2-.8 2.2-.8Z" style="fill:#f2a359;fill-rule:nonzero" transform="matrix(4.66 0 0 2.84 -1660 -524.2)"/>
    <path d="M227.9 432.3 217 416.1l-6.6 5.7v9c0 2.1-.7 3.8-2 5a6.1 6.1 0 0 1-4.2 1.7c-1.9 0-3.4-.6-4.5-1.8-1-1.1-1.6-2.8-1.6-5v-47.8c0-2.5.5-4.4 1.6-5.7 1-1.3 2.5-2 4.5-2 1.9 0 3.4.7 4.5 1.9 1.1 1.1 1.7 2.9 1.7 5.2v27.1l13.8-13.2c1.7-1.6 3-2.8 3.9-3.4.9-.6 2-.9 3.3-.9 1.5 0 2.8.5 3.8 1.4 1 .9 1.5 2 1.5 3.3 0 1.7-1.6 3.8-5 6.6l-6.5 5.4 12.6 18 2 3.1c.4.7.6 1.4.6 2 0 1.8-.5 3.2-1.6 4.2-1 1-2.5 1.6-4.2 1.6-1.5 0-2.6-.4-3.5-1.1-.8-.8-1.9-2.1-3.2-4ZM262.3 421.3v20.5c0 2.2-.6 4-1.8 5a6.1 6.1 0 0 1-4.4 1.8c-1.8 0-3.3-.6-4.4-1.7-1.1-1.2-1.7-2.9-1.7-5.1v-42.3c0-5 2-7.6 6-7.6 2 0 3.5.6 4.4 1.8a9 9 0 0 1 1.5 5.2c1.5-2.3 3-4 4.5-5.2a10 10 0 0 1 6.2-1.8c2.6 0 5 .6 7.5 1.8 2.4 1.2 3.7 2.7 3.7 4.7 0 1.4-.6 2.5-1.6 3.4a5 5 0 0 1-3.4 1.3l-3.2-.8c-1.7-.5-3.3-.7-4.6-.7-1.8 0-3.3.4-4.4 1.3-1.1.8-2 2.1-2.7 3.8-.6 1.7-1 3.7-1.3 6-.2 2.4-.3 5.2-.3 8.6ZM322.5 417.5h-24c0 2.5.5 4.7 1.6 6.7s2.6 3.4 4.4 4.4c1.8 1 3.8 1.4 6 1.4a13.8 13.8 0 0 0 7.6-2l3-2 3.8-3.2c.7-.5 1.6-.7 2.7-.7 1.3 0 2.3.3 3 1 .9.6 1.3 1.5 1.3 2.6 0 1-.5 2.2-1.3 3.5-1 1.4-2.2 2.7-4 4-1.7 1.2-4 2.2-6.6 3a31 31 0 0 1-9.2 1.3c-7.8 0-14-2-18.4-6.2a21.8 21.8 0 0 1-6.5-16.7c0-3.3.5-6.4 1.6-9.2a20 20 0 0 1 12.4-12c3-1 6.4-1.5 10-1.5 4.8 0 9 .9 12.4 2.7 3.4 1.9 6 4.3 7.7 7.2 1.7 3 2.6 5.9 2.6 9 0 2.7-1 4.6-2.7 5.4a18 18 0 0 1-7.4 1.3Zm-24-6.4h22.2c-.3-3.8-1.4-6.7-3.4-8.6-2-1.9-4.6-2.8-7.8-2.8-3 0-5.5 1-7.5 2.8-2 2-3.2 4.8-3.6 8.6Z" style="fill:#f697a9;fill-rule:nonzero" transform="matrix(3 0 0 3.28 -578 -1232.6)"/>
    <path d="M374 431.2c-3 2-5.9 3.6-8.6 4.7-2.8 1-6 1.6-9.4 1.6-3.1 0-5.9-.6-8.3-1.7a13.3 13.3 0 0 1-5.5-4.6 11.2 11.2 0 0 1 1.3-14.2c2.1-2.2 5-3.6 8.7-4.3A354 354 0 0 1 366 410c2.2-.5 4.6-1 7.2-1.8-.2-3-.8-5-2-6.5-1.1-1.4-3.5-2-7.2-2-3 0-5.4.4-7 1.1-1.6.8-3 2-4 3.6l-2.4 3.2c-.5.5-1.5.7-3 .7-1.4 0-2.6-.4-3.6-1.2-1-.8-1.5-1.8-1.5-3.1a9 9 0 0 1 2.3-5.7c1.5-1.9 3.9-3.4 7.1-4.6a35 35 0 0 1 12.1-1.8c5.4 0 9.7.5 12.8 1.7 3 1.2 5.2 3 6.5 5.5 1.3 2.5 2 5.9 2 10a833.6 833.6 0 0 1-.2 12.8c0 2.1.4 4.3 1.2 6.6.8 2.3 1.1 3.8 1.1 4.4 0 1.2-.6 2.2-1.7 3.2a6.3 6.3 0 0 1-4 1.4c-1.3 0-2.6-.6-3.8-1.6-1.2-1.1-2.5-2.7-4-4.7Zm-.8-16.2c-1.8.6-4.4 1.2-7.9 1.9l-7.1 1.4a10 10 0 0 0-3.8 1.9 4.6 4.6 0 0 0-1.8 3.8c0 1.7.7 3.2 2.1 4.3a8.3 8.3 0 0 0 5.6 1.8c2.4 0 4.6-.5 6.7-1.4 2-1 3.5-2.2 4.5-3.8 1.1-1.7 1.7-4.5 1.7-8.3V415Z" style="fill:#594799;fill-rule:nonzero" transform="matrix(3 0 0 3.28 -578 -1232.6)"/>
    <path d="M198 467.7h1.3V461l.1-4.3c.1-1 .4-1.9 1-2.6.4-.8 1-1.4 2-1.9.9-.4 1.9-.7 3-.7 1.6 0 3 .5 4.2 1.6.9.7 1.4 1.6 1.6 2.6.3 1 .4 2.5.4 4.4v7.6h4.5c1.7 0 3 .4 4 1.1.9.8 1.3 1.8 1.3 3 0 1.4-.6 2.5-2 3-1.2.7-3.1 1-5.5 1h-2.3v20.6c0 1.7 0 3 .2 4a4 4 0 0 0 1 2.3c.6.6 1.6.9 3 .9l2.8-.3c1.3-.3 2.2-.4 3-.4.9 0 1.8.4 2.6 1 .8.8 1.2 1.7 1.2 2.8 0 1.8-1.1 3.2-3.3 4.1-2.1 1-5.2 1.5-9.3 1.5-3.8 0-6.7-.6-8.7-1.8a8.3 8.3 0 0 1-3.9-4.9c-.6-2-1-4.8-1-8.3v-21.5h-1.5c-1.8 0-3.2-.4-4-1.2-1-.7-1.5-1.7-1.5-2.9 0-1.1.5-2.1 1.5-2.9 1-.7 2.4-1 4.2-1ZM242.2 473v66.3c0 2.3-.6 4-1.8 5.1a6.1 6.1 0 0 1-4.4 1.7c-1.8 0-3.3-.5-4.4-1.7-1.2-1.2-1.7-2.9-1.7-5v-66c0-2.2.5-3.9 1.7-5a6 6 0 0 1 4.4-1.7c1.8 0 3.2.6 4.4 1.7a6.2 6.2 0 0 1 1.8 4.7Zm-6.1-11.5c-1.7 0-3.2-.5-4.4-1.4a4.9 4.9 0 0 1-1.8-4c0-1.7.6-3 1.9-4 1.2-1 2.6-1.5 4.3-1.5 1.6 0 3 .4 4.2 1.4 1.3.9 1.9 2.2 1.9 4a5 5 0 0 1-1.8 4 6.6 6.6 0 0 1-4.3 1.5ZM263.5 473.7l10 25.4 10.7-26.5c.8-2.1 1.7-3.7 2.5-4.5.8-1 2-1.4 3.7-1.4 1.5 0 2.9.5 4 1.5 1 1 1.6 2 1.6 3.3l-.3 1.7-.7 1.9-.9 2-11.7 26.6-1.3 2.9c-.6 1.2-1.1 2.2-1.8 3-.6.8-1.4 1.5-2.4 2-1 .4-2 .7-3.4.7a7.1 7.1 0 0 1-6.5-3.5l-2.5-5.1-11.7-26.4a110.2 110.2 0 0 0-1.5-4l-.3-1.7c0-.8.2-1.6.8-2.3.5-.8 1.2-1.4 2-1.9 1-.4 2-.7 3-.7 2 0 3.4.6 4.2 1.6.8 1 1.6 2.9 2.5 5.4ZM316 473v1.3a21 21 0 0 1 7-5.7c2.6-1.3 5.6-1.9 8.9-1.9 3.2 0 6.1.7 8.7 2 2.5 1.2 4.4 3 5.7 5.4.8 1.4 1.3 2.9 1.6 4.4.2 1.6.3 3.6.3 6.1v20.8c0 2.3-.5 4-1.6 5.1a5.9 5.9 0 0 1-4.4 1.8 6 6 0 0 1-4.5-1.8c-1.1-1.2-1.7-2.9-1.7-5v-18.7c0-3.7-.6-6.5-1.7-8.5s-3.4-3-6.7-3a10.6 10.6 0 0 0-10 6.8c-.6 1.6-.9 4.8-.9 9.3v36.7c0 2.2-.5 4-1.7 5a6.1 6.1 0 0 1-4.5 1.8c-1.7 0-3.2-.6-4.3-1.8-1.2-1.2-1.7-2.9-1.7-5v-55c0-2.1.5-3.7 1.5-4.8 1-1 2.4-1.6 4.2-1.6 1 0 2 .3 2.9.7.9.5 1.6 1.2 2 2.1.6 1 .9 2 .9 3.4ZM372.8 473v56.4c0 2.3-.6 4-1.8 5.1a6.1 6.1 0 0 1-4.4 1.7c-1.8 0-3.3-.6-4.4-1.7-1.2-1.2-1.7-2.9-1.7-5v-56c0-2.3.5-4 1.7-5a6 6 0 0 1 4.4-1.8c1.8 0 3.2.6 4.4 1.7a6.2 6.2 0 0 1 1.8 4.7Z" style="fill:#f2a359;fill-rule:nonzero" transform="matrix(2.54 0 0 2.79 -488 -1036.6)"/>
    <path d="M349.2 604.6v-1a29.6 29.6 0 0 1-4.7 4.1 19 19 0 0 1-11.3 3.3 18.8 18.8 0 0 1-14.7-6.6 21.5 21.5 0 0 1-4.2-7.3c-1-2.9-1.4-6-1.4-9.3 0-7 1.9-12.4 5.6-16.3 3.8-4 8.7-5.9 14.9-5.9 3.5 0 6.5.5 9 1.7 2.3 1 4.5 2.8 6.8 5v-16.5c0-2.3.7-4 1.7-5.2 1-1.2 2.5-1.7 4.3-1.7 1.9 0 3.8.5 4.8 1.6 1 1 1.5 2.7 1.5 4.8v49.3c0 2.2-.8 3.8-1.9 4.8-1 1.1-2.7 1.6-4.4 1.6-1.7 0-3-.5-4.1-1.6a6.5 6.5 0 0 1-1.9-4.8Zm-24-16.4c0 3 .6 5.6 1.6 7.7a11 11 0 0 0 10.2 6.5c2.1 0 4-.5 5.9-1.6 1.8-1 3.2-2.5 4.2-4.7 1.1-2 1.6-4.7 1.6-7.9 0-3-.5-5.5-1.6-7.7a11 11 0 0 0-10.3-6.6 10.7 10.7 0 0 0-10 6.7c-1 2.2-1.6 4.7-1.6 7.6Z" style="fill:#594799;fill-rule:nonzero" transform="matrix(2.54 0 0 2.79 -521.7 -1162.2)"/>
    <path d="M405.3 604.7v-1.4c-1.5 1.7-3 3.1-4.7 4.3-1.6 1.1-3.4 2-5.3 2.5-1.9.6-4 .9-6.6.9-3 0-5.6-.6-8-1.7a13 13 0 0 1-5.4-4.7 19 19 0 0 1-2.3-10.2v-22.2c0-2.2.6-4 1.7-5a6 6 0 0 1 4.4-1.7c1.8 0 3.3.6 4.5 1.7 1.1 1.1 1.7 2.8 1.7 5v18c0 2.5.2 4.7.7 6.5a7.7 7.7 0 0 0 2.6 4.1c1.2 1 3 1.5 5 1.5a11 11 0 0 0 10-6c.6-1.7 1-5.1 1-10.5v-13.6c0-2.2.5-3.9 1.7-5a6 6 0 0 1 4.4-1.7 6 6 0 0 1 4.4 1.7c1.1 1 1.7 2.8 1.7 5v32.4c0 2.2-.5 3.8-1.6 4.8-1 1.1-2.4 1.6-4.1 1.6-1.7 0-3.1-.5-4.2-1.6a6.3 6.3 0 0 1-1.6-4.7Z" style="fill:#f2a359;fill-rule:nonzero" transform="matrix(2.54 0 0 2.79 -520.5 -1163.6)"/>
    <path d="M475 588.3c0 3.3-.6 6.4-1.7 9.2a20.2 20.2 0 0 1-5 7.3c-2.1 2-4.7 3.5-7.7 4.6-3 1.1-6.4 1.6-10.1 1.6-3.7 0-7-.5-10-1.6-3-1-5.6-2.7-7.8-4.7-2.1-2-3.8-4.4-5-7.2a24.3 24.3 0 0 1-1.6-9.2c0-3.4.6-6.5 1.7-9.3a20 20 0 0 1 12.7-11.9c3-1 6.3-1.6 10-1.6s7 .6 10.1 1.7a20 20 0 0 1 12.7 11.9c1.2 2.7 1.7 5.8 1.7 9.2Zm-12.3 0c0-4.6-1.1-8.1-3.3-10.7a11.2 11.2 0 0 0-9-3.8c-2.3 0-4.4.6-6.3 1.7a11 11 0 0 0-4.2 5c-1 2.2-1.5 4.8-1.5 7.8 0 2.9.5 5.5 1.5 7.6 1 2.2 2.4 4 4.2 5 1.8 1.2 4 1.8 6.4 1.8 3.7 0 6.7-1.3 8.9-3.8 2.2-2.6 3.3-6.1 3.3-10.6Z" style="fill:#f2a359;fill-rule:nonzero" transform="matrix(2.54 0 0 2.79 -527.4 -1163.6)"/>
</svg>
